<?xml version="1.0" encoding="utf-8"?>
<!-- Generator: Adobe Illustrator 23.0.2, SVG Export Plug-In . SVG Version: 6.00 Build 0)  -->
<svg version="1.1" id="Layer_1" xmlns="http://www.w3.org/2000/svg" xmlns:xlink="http://www.w3.org/1999/xlink" x="0px" y="0px"
	 viewBox="0 0 84 84" style="enable-background:new 0 0 84 84;" xml:space="preserve">
<style type="text/css">
	.st0{fill:#7F09D3;}
	.st1{fill:#FFFFFF;}
</style>
<circle class="st0" cx="42" cy="42" r="40"/>
<path class="st1" d="M62.8,60.6h-1.3c-0.2,0-0.4-0.2-0.4-0.4l0-38.9c0-0.2-0.2-0.4-0.4-0.4l-37.2,0c-0.2,0-0.4,0.2-0.4,0.4v38.9
	c0,0.2-0.2,0.4-0.4,0.4h-1.3c-0.2,0-0.4,0.2-0.4,0.4v1.8c0,0.2,0.2,0.4,0.4,0.4h41.5c0.2,0,0.4-0.2,0.4-0.4V61
	C63.2,60.8,63,60.6,62.8,60.6L62.8,60.6z M27.3,34.3v-6.5c0-0.2,0.2-0.4,0.4-0.4h7.4c0.2,0,0.4,0.2,0.4,0.4v6.5
	c0,0.2-0.2,0.4-0.4,0.4h-7.4C27.5,34.7,27.3,34.5,27.3,34.3L27.3,34.3z M27.8,60V43.5c0-0.2,0.2-0.4,0.4-0.4h12.2
	c0.2,0,0.4,0.2,0.4,0.4V60c0,0.2-0.2,0.4-0.4,0.4l-12.2,0C28,60.4,27.8,60.2,27.8,60L27.8,60z M56.2,60c0,0.2-0.2,0.4-0.4,0.4H43.5
	c-0.2,0-0.4-0.2-0.4-0.4V43.5c0-0.2,0.2-0.4,0.4-0.4h12.2c0.2,0,0.4,0.2,0.4,0.4V60z M56.7,34.3c0,0.2-0.2,0.4-0.4,0.4h-7.4
	c-0.2,0-0.4-0.2-0.4-0.4v-6.5c0-0.2,0.2-0.4,0.4-0.4h7.4c0.2,0,0.4,0.2,0.4,0.4V34.3z"/>
<path class="st1" d="M42,84C18.8,84,0,65.2,0,42C0,18.8,18.8,0,42,0c23.2,0,42,18.8,42,42C84,65.2,65.2,84,42,84z M42,4
	C21,4,4,21,4,42s17,38,38,38s38-17,38-38S63,4,42,4z"/>
</svg>
